Coordinates
version=1
nRows=9
nColumns=63
inDegrees=yes

Units are S.I. units (second, meters, Newtons, ...)
If the header above contains a line with 'inDegrees', this indicates whether rotational values are in degrees (yes) or radians (no).

endheader
time	pelvis_tilt	pelvis_list	pelvis_rotation	pelvis_tx	pelvis_ty	pelvis_tz	hip_flexion_r	hip_adduction_r	hip_rotation_r	knee_angle_r	knee_angle_r_beta	ankle_angle_r	subtalar_angle_r	mtp_angle_r	hip_flexion_l	hip_adduction_l	hip_rotation_l	knee_angle_l	knee_angle_l_beta	ankle_angle_l	subtalar_angle_l	mtp_angle_l	L5_S1_Flex_Ext	L5_S1_Lat_Bending	L5_S1_axial_rotation	L4_L5_Flex_Ext	L4_L5_Lat_Bending	L4_L5_axial_rotation	L3_L4_Flex_Ext	L3_L4_Lat_Bending	L3_L4_axial_rotation	L2_L3_Flex_Ext	L2_L3_Lat_Bending	L2_L3_axial_rotation	L1_L2_Flex_Ext	L1_L2_Lat_Bending	L1_L2_axial_rotation	L1_T12_Flex_Ext	L1_T12_Lat_Bending	L1_T12_axial_rotation	Abs_r3	Abs_r2	Abs_r1	Abs_t1	Abs_t2	neck_flexion	neck_bending	neck_rotation	arm_flex_r	arm_add_r	arm_rot_r	elbow_flex_r	pro_sup_r	wrist_flex_r	wrist_dev_r	arm_flex_l	arm_add_l	arm_rot_l	elbow_flex_l	pro_sup_l	wrist_flex_l	wrist_dev_l
0.000000	1.502383	-5.631966	98.976187	0.176634	0.975613	0.528873	2.002831	0.039805	-23.108148	14.253266	0.248766	35.821145	13.144704	0.000000	-1.732381	0.700982	14.563184	4.452996	0.077719	29.319767	-12.609711	0.000000	-0.033997	0.125031	-1.239405	-0.063137	0.166291	-1.316868	-0.055854	0.304000	-1.316868	-0.038856	0.304000	-1.084479	-0.031570	0.254963	-1.007017	-0.019426	0.193673	-0.929554	-0.242840	1.414373	-6.893199	0.000000	0.000000	25.846922	1.176578	1.062587	17.661797	-7.185419	75.037092	34.823254	22.188597	7.784838	-3.188097	10.401326	-3.197499	49.854347	44.150032	88.183512	-5.161955	-4.673692
0.021277	1.584892	-5.370772	100.160603	0.175857	0.976270	0.528667	1.500828	0.366516	-23.955471	13.781404	0.240531	35.317761	12.544405	0.000000	-1.165830	0.439235	13.005552	5.944027	0.103743	30.676954	-9.016184	0.000000	-0.047684	0.138654	-1.520512	-0.088554	0.184410	-1.615544	-0.078340	0.337123	-1.615544	-0.054498	0.337123	-1.330448	-0.044279	0.282743	-1.235416	-0.027247	0.214775	-1.140384	-0.340600	1.568480	-8.456630	0.000000	0.000000	25.477485	1.353894	1.270891	17.894418	-7.330412	77.084257	35.098273	19.670383	8.141829	-3.476590	10.151414	-3.203802	50.301840	43.687781	88.366588	-5.081476	-5.530573
0.042553	1.637247	-5.148350	101.089832	0.175224	0.976868	0.528434	1.073286	0.632071	-24.484989	13.377533	0.233482	34.890408	11.904860	0.000000	-0.771006	0.240216	11.795658	7.063735	0.123285	31.707772	-6.194914	0.000000	-0.058384	0.148755	-1.750138	-0.108425	0.197844	-1.859522	-0.095919	0.361683	-1.859522	-0.066727	0.361683	-1.531371	-0.054216	0.303342	-1.421987	-0.033361	0.230422	-1.312604	-0.417033	1.682748	-9.733745	0.000000	0.000000	25.140543	1.483777	1.479643	18.083352	-7.417148	78.704129	35.266586	17.615456	8.403910	-3.633186	10.046192	-3.136379	50.759145	43.139201	88.482756	-4.957852	-6.100924
0.063830	1.663642	-4.961800	101.787409	0.174723	0.977411	0.528180	0.714574	0.842925	-24.730231	13.036221	0.227525	34.533114	11.236461	0.000000	-0.529405	0.096772	10.896298	7.849731	0.137004	32.444635	-4.070260	0.000000	-0.066437	0.155792	-1.932737	-0.123380	0.207204	-2.053533	-0.109149	0.378794	-2.053533	-0.075931	0.378794	-1.691145	-0.061693	0.317692	-1.570349	-0.037962	0.241322	-1.449553	-0.474552	1.762355	-10.749303	0.000000	0.000000	24.835888	1.570324	1.684648	18.232114	-7.451836	79.934284	35.342894	15.985833	8.578595	-3.670565	10.066933	-3.005616	51.213097	42.523099	88.538965	-4.798902	-6.415126
0.085106	1.668269	-4.808225	102.276875	0.174343	0.977901	0.527909	0.419063	1.005530	-24.724722	12.752035	0.222565	34.239909	10.549602	0.000000	-0.422527	0.001751	10.270269	8.339625	0.145554	32.919955	-2.566577	0.000000	-0.072179	0.160223	-2.072759	-0.134044	0.213097	-2.202306	-0.118584	0.389567	-2.202306	-0.082494	0.389567	-1.813664	-0.067026	0.326728	-1.684117	-0.041243	0.248186	-1.554569	-0.515571	1.812480	-11.528064	0.000000	0.000000	24.563312	1.617632	1.881705	18.344222	-7.440682	80.812302	35.341902	14.743532	8.673395	-3.601406	10.194909	-2.821899	51.650525	41.858284	88.542162	-4.612444	-6.503561
0.106383	1.655322	-4.684725	102.581765	0.174073	0.978341	0.527629	0.181124	1.126341	-24.501992	12.519544	0.218507	34.004823	9.854676	0.000000	-0.431871	-0.051999	9.880369	8.571030	0.149593	33.166145	-1.608225	0.000000	-0.075950	0.162506	-2.174657	-0.141047	0.216133	-2.310573	-0.124778	0.395117	-2.310573	-0.086803	0.395117	-1.902824	-0.070527	0.331382	-1.766908	-0.043398	0.251722	-1.630992	-0.542504	1.838300	-12.094787	0.000000	0.000000	24.322609	1.629796	2.066617	18.423192	-7.389894	81.375759	35.278311	13.850571	8.695824	-3.438389	10.411393	-2.595612	52.058263	41.163561	88.499295	-4.406299	-6.396611
0.127660	1.628993	-4.588404	102.725619	0.173899	0.978732	0.527345	-0.004874	1.211812	-24.095566	12.333315	0.215257	33.821886	9.162078	0.000000	-0.538935	-0.071629	9.689396	8.581555	0.149776	33.215618	-1.119560	0.000000	-0.078087	0.163098	-2.242881	-0.145015	0.216920	-2.383061	-0.128288	0.396556	-2.383061	-0.089245	0.396556	-1.962521	-0.072511	0.332589	-1.822341	-0.044619	0.252639	-1.682161	-0.557764	1.844995	-12.474233	0.000000	0.000000	24.113572	1.610915	2.235186	18.472541	-7.305680	81.662233	35.166824	13.268967	8.653394	-3.194193	10.697658	-2.337141	52.423141	40.457739	88.417313	-4.188283	-6.124657
0.148936	1.593476	-4.516362	102.731973	0.173812	0.979078	0.527063	-0.144560	1.268398	-23.538973	12.187914	0.212719	33.685127	8.482199	0.000000	-0.725217	-0.064293	9.660146	8.408812	0.146761	33.100787	-1.024940	0.000000	-0.078927	0.162457	-2.281885	-0.146575	0.216068	-2.424503	-0.129669	0.394997	-2.424503	-0.090206	0.394997	-1.996650	-0.073291	0.331282	-1.854032	-0.045099	0.251646	-1.711414	-0.563767	1.837744	-12.691162	0.000000	0.000000	23.935993	1.565085	2.383213	18.495785	-7.194247	81.709302	35.022144	12.960740	8.553619	-2.881499	11.034975	-2.056870	52.731993	39.759625	88.303162	-3.966217	-5.718082
0.170213	1.552963	-4.465702	102.624366	0.173800	0.979382	0.526789	-0.243564	1.302551	-22.865740	12.077910	0.210799	33.588577	7.825435	0.000000	-0.972216	-0.037143	9.755417	8.090413	0.141204	32.854064	-1.248723	0.000000	-0.078809	0.161041	-2.296120	-0.146356	0.214184	-2.439628	-0.129475	0.391554	-2.439628	-0.090071	0.391554	-2.009105	-0.073182	0.328394	-1.865598	-0.045031	0.249452	-1.722090	-0.562924	1.821724	-12.770332	0.000000	0.000000	23.789666	1.496403	2.506500	18.496442	-7.061801	81.554544	34.858974	12.887906	8.404010	-2.512984	11.404617	-1.765185	52.971649	39.088025	88.163790	-3.747919	-5.207266
